<svg width="35" height="35" viewBox="0 0 35 35" fill="none" xmlns="http://www.w3.org/2000/svg">
<path d="M27.7084 8.75004H25.3954L23.9371 7.29171C23.0927 6.44733 21.6111 5.83337 20.4167 5.83337H14.5834C13.389 5.83337 11.9073 6.44733 11.0629 7.29171L9.6046 8.75004H7.29169C4.8796 8.75004 2.91669 10.713 2.91669 13.125V24.7917C2.91669 27.2038 4.8796 29.1667 7.29169 29.1667H27.7084C30.1204 29.1667 32.0834 27.2038 32.0834 24.7917V13.125C32.0834 10.713 30.1204 8.75004 27.7084 8.75004ZM17.5 23.3334C16.1461 23.3332 14.8477 22.7952 13.8905 21.8377C12.9333 20.8802 12.3957 19.5816 12.3959 18.2277C12.396 16.8738 12.9341 15.5755 13.8916 14.6183C14.849 13.661 16.1476 13.1234 17.5015 13.1236C18.8554 13.1238 20.1538 13.6618 21.111 14.6193C22.0682 15.5768 22.6058 16.8753 22.6056 18.2292C22.6055 19.5831 22.0674 20.8815 21.1099 21.8387C20.1525 22.7959 18.8539 23.3336 17.5 23.3334ZM26.25 16.4777C26.0011 16.4777 25.7545 16.4287 25.5245 16.3334C25.2945 16.2382 25.0855 16.0985 24.9095 15.9225C24.7334 15.7464 24.5938 15.5374 24.4985 15.3074C24.4032 15.0774 24.3542 14.8309 24.3542 14.5819C24.3542 14.333 24.4032 14.0864 24.4985 13.8564C24.5938 13.6264 24.7334 13.4174 24.9095 13.2414C25.0855 13.0653 25.2945 12.9257 25.5245 12.8304C25.7545 12.7351 26.0011 12.6861 26.25 12.6861C26.7528 12.6861 27.235 12.8858 27.5906 13.2414C27.9461 13.5969 28.1459 14.0791 28.1459 14.5819C28.1459 15.0847 27.9461 15.5669 27.5906 15.9225C27.235 16.278 26.7528 16.4777 26.25 16.4777Z" fill="black"/>
</svg>
