<svg width="38" height="38" viewBox="0 0 38 38" fill="none" xmlns="http://www.w3.org/2000/svg">
<path d="M20.5833 33.25V30.0833H33.25V33.25H20.5833ZM25.3333 28.5V12.6667C25.3333 12.2181 25.1813 11.8423 24.8773 11.5393C24.5733 11.2364 24.1975 11.0844 23.75 11.0833H17.4167V15.8333C17.4167 16.2819 17.2647 16.6583 16.9607 16.9623C16.6567 17.2663 16.2809 17.4177 15.8333 17.4167H6.33333C5.75277 17.4167 5.30416 17.1792 4.98749 16.7042C4.67083 16.2292 4.63124 15.7278 4.86874 15.2L8.62916 6.65C8.89305 6.06944 9.28202 5.60764 9.79608 5.26458C10.3101 4.92153 10.8844 4.75 11.5187 4.75H14.25C15.1208 4.75 15.8666 5.06033 16.4872 5.681C17.1079 6.30167 17.4177 7.04689 17.4167 7.91667H23.75C25.0694 7.91667 26.191 8.37847 27.1146 9.30208C28.0382 10.2257 28.5 11.3472 28.5 12.6667V28.5H25.3333Z" fill="black"/>
</svg>
